<svg width="42" height="24" viewBox="0 0 42 24" fill="none" xmlns="http://www.w3.org/2000/svg">
<path fill-rule="evenodd" clip-rule="evenodd" d="M20.9998 4.60086C18.8605 1.97147 15.6047 0.292683 11.9582 0.292683C5.51485 0.292683 0.291504 5.53423 0.291504 12C0.291504 18.4658 5.51485 23.7073 11.9582 23.7073C15.6047 23.7073 18.8605 22.0285 20.9998 19.3991C23.1392 22.0285 26.395 23.7073 30.0415 23.7073C36.4848 23.7073 41.7082 18.4658 41.7082 12C41.7082 11.0967 41.6057 10.2146 41.4111 9.36585H31.354L28.729 14.6341H35.8984C34.8951 16.877 32.6501 18.439 30.0415 18.439C26.4977 18.439 23.6248 15.5562 23.6248 12C23.6248 8.44383 26.4977 5.56098 30.0415 5.56098C31.078 5.56098 32.0499 5.8056 32.9102 6.23807L35.2617 1.5278C33.688 0.736682 31.9127 0.292683 30.0415 0.292683C26.395 0.292683 23.1392 1.97147 20.9998 4.60086ZM5.5415 12C5.5415 8.44383 8.41434 5.56098 11.9582 5.56098C15.502 5.56098 18.3748 8.44383 18.3748 12C18.3748 15.5562 15.502 18.439 11.9582 18.439C8.41434 18.439 5.5415 15.5562 5.5415 12Z" fill="white"/>
</svg>
